<svg xmlns="http://www.w3.org/2000/svg" viewBox="0 0 24 24" fill="none" stroke="#111316" stroke-width="1.8" stroke-linecap="round" stroke-linejoin="round">
  <path d="M3 7.5h5.7c2 0 3.3 1.05 3.3 2.7 0 1.14-.55 1.93-1.62 2.28 1.46.29 2.22 1.3 2.22 2.82 0 1.96-1.5 3.2-3.86 3.2H3V7.5Z"/>
  <path d="M6 10.1h2.35c.9 0 1.44.44 1.44 1.17 0 .8-.54 1.22-1.44 1.22H6v-2.4Z"/>
  <path d="M6 14.55h2.57c1.06 0 1.67.49 1.67 1.35 0 .86-.61 1.38-1.67 1.38H6v-2.73Z"/>
  <path d="M15 11.2h6"/>
  <path d="M20.4 15.95c-.35 1.73-1.78 2.75-3.92 2.75-2.67 0-4.33-1.77-4.33-4.6 0-2.78 1.7-4.65 4.28-4.65 2.56 0 4.1 1.68 4.1 4.52v.63h-5.7c.06 1.34.77 2.1 1.9 2.1.82 0 1.4-.29 1.65-.75h2.02Z"/>
</svg>
