<svg xmlns="http://www.w3.org/2000/svg" viewBox="0 0 24 24" fill="none" stroke="#111316" stroke-width="1.8" stroke-linecap="round" stroke-linejoin="round">
  <path d="M20 11.5a8 8 0 0 1-11.8 7l-3.2.9.95-3.07A8 8 0 1 1 20 11.5Z"/>
  <path d="M9 8.9c.2-.45.42-.46.62-.47h.53c.16 0 .4.06.6.47.2.41.69 1.63.75 1.75.07.12.12.26.02.42-.1.16-.15.25-.3.38-.14.13-.3.28-.43.37-.14.09-.28.2-.12.4.15.2.67 1.1 1.43 1.78.98.88 1.8 1.15 2.05 1.27.25.12.4.1.55-.06.15-.17.64-.74.81-1 .17-.25.34-.2.57-.12.24.08 1.48.7 1.74.83.26.13.43.19.49.3.06.11.06.62-.15 1.22-.21.6-1.24 1.17-1.69 1.24-.45.07-.99.1-1.6-.1-.37-.12-.84-.28-1.44-.54a6.67 6.67 0 0 1-2.56-1.94 7.4 7.4 0 0 1-1.56-2.58c-.16-.59-.02-1.09.1-1.47.12-.39.53-.93.74-1.07Z"/>
</svg>
