<svg xmlns="http://www.w3.org/2000/svg" viewBox="0 0 24 24" fill="none" stroke="#111316" stroke-width="1.8" stroke-linecap="round" stroke-linejoin="round">
  <path d="M21 12.2c0 2.8-.32 4.45-.65 5.2a2.36 2.36 0 0 1-1.3 1.25c-.95.35-4.5.55-7.05.55s-6.1-.2-7.05-.55a2.36 2.36 0 0 1-1.3-1.25C3.32 16.65 3 15 3 12.2s.32-4.45.65-5.2a2.36 2.36 0 0 1 1.3-1.25C5.9 5.4 9.45 5.2 12 5.2s6.1.2 7.05.55A2.36 2.36 0 0 1 20.35 7c.33.75.65 2.4.65 5.2Z"/>
  <path d="m10 9 5 3-5 3V9Z" fill="#111316" stroke="none"/>
</svg>
